<?xml version="1.0" encoding="UTF-8"?>
<svg class="icon" aria-hidden="true" xmlns="http://www.w3.org/2000/svg" xmlns:xlink="http://www.w3.org/1999/xlink" width="283.46pt" height="283.46pt" viewBox="0 0 283.46 283.46" version="1.1">
<g id="surface1">
<path style=" stroke:none;fill-rule:nonzero;fill:#333333;fill-opacity:1;" d="M 230.558594 190.902344 L 55.839844 190.902344 L 34.457031 94.394531 L 249.691406 94.394531 Z M 277.558594 71.507812 C 274.898438 68.269531 270.929688 66.394531 266.738281 66.394531 L 247.175781 66.394531 C 248.050781 64.566406 248.554688 62.527344 248.554688 60.367188 L 248.554688 54.132812 C 248.554688 49.5625 246.328125 45.28125 242.585938 42.664062 L 218.667969 25.910156 C 215.355469 23.589844 211.203125 22.816406 207.277344 23.785156 L 180.550781 30.390625 L 135.304688 9.363281 C 129.484375 6.660156 122.578125 8.257812 118.535156 13.234375 L 103.761719 31.433594 L 83.574219 22.511719 C 78.398438 20.222656 72.351562 21.277344 68.257812 25.183594 L 50.089844 42.5 L 39.253906 47.78125 C 33.394531 50.640625 30.28125 57.164062 31.75 63.515625 C 31.984375 64.527344 32.335938 65.484375 32.765625 66.394531 L 17.015625 66.394531 C 12.769531 66.394531 8.753906 68.320312 6.097656 71.628906 C 3.441406 74.941406 2.429688 79.277344 3.347656 83.421875 L 30.933594 207.929688 C 32.355469 214.339844 38.039062 218.902344 44.601562 218.902344 L 242.058594 218.902344 C 248.738281 218.902344 254.488281 214.179688 255.789062 207.625 L 280.472656 83.117188 C 281.285156 79.007812 280.21875 74.746094 277.558594 71.507812 "/>
<path style=" stroke:none;fill-rule:nonzero;fill:#333333;fill-opacity:1;" d="M 93.570312 228.648438 C 79.9375 228.648438 68.886719 239.695312 68.886719 253.328125 C 68.886719 266.957031 79.9375 278.007812 93.570312 278.007812 C 107.199219 278.007812 118.25 266.957031 118.25 253.328125 C 118.25 239.695312 107.199219 228.648438 93.570312 228.648438 "/>
<path style=" stroke:none;fill-rule:nonzero;fill:#333333;fill-opacity:1;" d="M 196.292969 228.648438 C 182.660156 228.648438 171.609375 239.695312 171.609375 253.328125 C 171.609375 266.957031 182.660156 278.007812 196.292969 278.007812 C 209.921875 278.007812 220.972656 266.957031 220.972656 253.328125 C 220.972656 239.695312 209.921875 228.648438 196.292969 228.648438 "/>
</g>
</svg>
