<?xml version="1.0" encoding="UTF-8"?>
<svg class="icon" aria-hidden="true" xmlns="http://www.w3.org/2000/svg" xmlns:xlink="http://www.w3.org/1999/xlink" width="283.46pt" height="283.46pt" viewBox="0 0 283.46 283.46" version="1.1">
<g id="surface1">
<path style=" stroke:none;fill-rule:evenodd;fill:#1E4164;fill-opacity:1;" d="M 202.394531 242.070312 C 197.28125 245.351562 177.519531 252.046875 141.832031 252.046875 C 106.140625 252.046875 86.382812 245.351562 81.265625 242.070312 C 80.925781 240.890625 80.429688 239.777344 79.8125 238.746094 L 79.8125 226.515625 C 83.035156 227.535156 86.3125 228.328125 89.34375 228.980469 C 103.460938 232.003906 122.089844 233.671875 141.789062 233.671875 C 161.492188 233.671875 180.117188 232.003906 194.234375 228.980469 C 197.929688 228.1875 201.984375 227.183594 205.855469 225.820312 L 205.855469 236.148438 C 204.253906 237.785156 203.046875 239.808594 202.394531 242.070312 Z M 141.832031 71.671875 C 162.808594 71.671875 182.699219 69.40625 197.84375 65.292969 C 200.707031 64.515625 203.375 63.667969 205.855469 62.761719 L 205.855469 78.363281 C 205.140625 79.246094 204.566406 80.253906 204.1875 81.347656 C 198.808594 84.625 177.277344 89.898438 142.429688 89.898438 C 107.578125 89.898438 86.042969 84.625 80.667969 81.347656 C 80.445312 80.710938 80.15625 80.105469 79.8125 79.53125 L 79.8125 63.46875 C 81.714844 64.109375 83.710938 64.71875 85.820312 65.292969 C 100.960938 69.40625 120.855469 71.671875 141.832031 71.671875 Z M 141.832031 31.449219 C 166.105469 31.449219 183.007812 34.546875 192.949219 37.5625 C 183.007812 40.574219 166.105469 43.671875 141.832031 43.671875 C 117.558594 43.671875 100.65625 40.574219 90.714844 37.5625 C 100.65625 34.546875 117.558594 31.449219 141.832031 31.449219 Z M 79.8125 102.539062 C 83.238281 103.65625 86.75 104.515625 89.980469 105.207031 C 104.101562 108.234375 122.726562 109.898438 142.429688 109.898438 C 162.128906 109.898438 180.757812 108.234375 194.871094 105.207031 C 198.363281 104.460938 202.179688 103.523438 205.855469 102.269531 L 205.855469 201.414062 C 204.835938 202.457031 204.039062 203.714844 203.550781 205.117188 C 198.171875 208.398438 176.640625 213.671875 141.789062 213.671875 C 106.941406 213.671875 85.40625 208.398438 80.03125 205.117188 C 79.964844 204.929688 79.890625 204.746094 79.8125 204.5625 Z M 225.855469 49.664062 C 228.515625 46.046875 229.855469 42.007812 229.855469 37.5625 C 229.855469 24.929688 219.085938 15.601562 197.84375 9.828125 C 182.699219 5.714844 162.808594 3.449219 141.832031 3.449219 C 120.855469 3.449219 100.960938 5.714844 85.820312 9.828125 C 64.578125 15.601562 53.808594 24.929688 53.808594 37.5625 C 53.808594 43.015625 55.820312 47.851562 59.8125 52.054688 L 59.8125 234.453125 C 56.183594 236.984375 53.808594 241.179688 53.808594 245.9375 C 53.808594 258.566406 64.578125 267.898438 85.820312 273.667969 C 100.960938 277.78125 120.855469 280.046875 141.832031 280.046875 C 162.808594 280.046875 182.699219 277.78125 197.84375 273.667969 C 219.085938 267.898438 229.855469 258.566406 229.855469 245.9375 C 229.855469 242.125 228.328125 238.671875 225.855469 236.148438 L 225.855469 49.664062 "/>
<path style=" stroke:none;fill-rule:evenodd;fill:#1E4164;fill-opacity:1;" d="M 128.140625 163.796875 C 134.921875 163.796875 140.417969 169.292969 140.417969 176.074219 C 140.417969 182.859375 134.921875 188.359375 128.140625 188.359375 C 121.355469 188.359375 115.859375 182.859375 115.859375 176.074219 C 115.859375 169.292969 121.355469 163.796875 128.140625 163.796875 Z M 127.554688 203.007812 C 141.695312 209.367188 158.40625 204.417969 166.664062 191.371094 C 169.089844 187.546875 170.527344 183.34375 170.839844 178.789062 C 170.871094 178.363281 171.054688 177.960938 171.167969 177.539062 C 171.167969 176.433594 171.167969 175.332031 171.167969 174.222656 C 170.851562 172.386719 170.621094 170.53125 170.210938 168.71875 C 168.894531 163.007812 166.269531 157.824219 163.242188 152.890625 C 157.160156 143.019531 145.851562 125.089844 142.175781 119.277344 C 141.425781 118.089844 139.339844 118.085938 138.570312 119.269531 C 134.472656 125.605469 121.082031 146.386719 115.734375 155.996094 C 113.175781 160.578125 110.992188 165.335938 110.109375 170.585938 C 107.789062 184.425781 114.652344 197.203125 127.554688 203.007812 "/>
</g>
</svg>
