<?xml version="1.0" encoding="UTF-8"?>
<svg class="icon" aria-hidden="true" xmlns="http://www.w3.org/2000/svg" xmlns:xlink="http://www.w3.org/1999/xlink" width="283.46pt" height="283.46pt" viewBox="0 0 283.46 283.46" version="1.1">
<g id="surface1">
<path style=" stroke:none;fill-rule:nonzero;fill:#1E4164;fill-opacity:1;" d="M 125.308594 98.878906 L 68.292969 174.542969 L 101.292969 174.542969 L 84.09375 228.78125 L 141.105469 153.121094 L 108.105469 153.121094 L 125.308594 98.878906 "/>
<path style=" stroke:none;fill-rule:nonzero;fill:#1E4164;fill-opacity:1;" d="M 227.234375 123.121094 C 221.625 123.121094 217.078125 127.667969 217.078125 133.277344 C 217.078125 138.886719 221.625 143.433594 227.234375 143.433594 C 232.84375 143.433594 237.390625 138.886719 237.390625 133.277344 C 237.390625 127.667969 232.84375 123.121094 227.234375 123.121094 "/>
<path style=" stroke:none;fill-rule:nonzero;fill:#1E4164;fill-opacity:1;" d="M 227.234375 117.375 C 231.644531 117.375 235.164062 113.8125 235.164062 109.402344 L 235.164062 85.566406 C 235.164062 81.195312 231.644531 77.636719 227.234375 77.636719 C 222.867188 77.636719 219.304688 81.15625 219.304688 85.566406 L 219.304688 109.441406 C 219.304688 113.8125 222.824219 117.375 227.234375 117.375 "/>
<path style=" stroke:none;fill-rule:nonzero;fill:#1E4164;fill-opacity:1;" d="M 227.234375 151.132812 C 222.867188 151.132812 219.304688 154.652344 219.304688 159.0625 L 219.304688 262.800781 C 219.304688 267.167969 222.824219 270.730469 227.234375 270.730469 C 231.644531 270.730469 235.164062 267.167969 235.164062 262.757812 L 235.164062 159.0625 C 235.164062 154.695312 231.644531 151.132812 227.234375 151.132812 "/>
<path style=" stroke:none;fill-rule:nonzero;fill:#1E4164;fill-opacity:1;" d="M 36.753906 244.441406 L 63.515625 139.679688 C 63.75 138.753906 63.890625 137.804688 63.933594 136.847656 C 64.039062 136.257812 64.195312 135.398438 64.390625 134.332031 C 66.082031 124.996094 70.039062 103.140625 70.039062 89.8125 C 70.039062 85.003906 69.363281 79.132812 67.984375 72.019531 C 75.921875 70.074219 90.160156 67.957031 109.863281 67.957031 C 127.527344 67.957031 139.183594 69.785156 145.777344 71.40625 C 144.648438 77.277344 143.636719 84.300781 143.636719 90.320312 C 143.636719 103.1875 147.585938 125.246094 149.269531 134.664062 C 149.476562 135.808594 149.640625 136.71875 149.746094 137.339844 C 149.789062 138.304688 149.929688 139.261719 150.171875 140.199219 L 176.90625 244.441406 Z M 202.636719 139.171875 L 183.507812 150.199219 C 182.925781 150.535156 182.410156 150.941406 181.945312 151.386719 L 177.648438 134.621094 C 177.539062 133.691406 177.3125 132.40625 176.832031 129.734375 C 175.410156 121.792969 171.636719 100.703125 171.636719 90.320312 C 171.636719 83.230469 174.105469 72.085938 175.230469 68.089844 C 175.742188 66.273438 175.882812 64.367188 175.640625 62.496094 L 175.632812 62.441406 C 175.464844 60.191406 174.753906 58.011719 173.554688 56.089844 C 171.078125 52.113281 166.105469 47.09375 149.488281 43.519531 C 138.65625 41.1875 124.953125 39.957031 109.863281 39.957031 C 100.609375 39.957031 53.84375 40.648438 41.957031 54.300781 C 40.332031 56.164062 39.234375 58.421875 38.769531 60.839844 C 37.996094 63.28125 37.90625 65.890625 38.515625 68.382812 C 41.429688 80.339844 42.039062 86.636719 42.039062 89.8125 C 42.039062 100.621094 38.261719 121.484375 36.835938 129.339844 C 36.363281 131.960938 36.136719 133.214844 36.03125 134.132812 L 5.164062 254.976562 C 4.09375 259.164062 5.019531 263.613281 7.667969 267.027344 C 10.320312 270.441406 14.402344 272.441406 18.726562 272.441406 L 194.953125 272.441406 C 194.957031 272.441406 194.964844 272.4375 194.972656 272.441406 C 202.703125 272.441406 208.972656 266.171875 208.972656 258.441406 C 208.972656 256.957031 208.742188 255.527344 208.3125 254.1875 L 185.378906 164.769531 C 187.347656 165.308594 189.523438 165.089844 191.4375 163.984375 L 210.566406 152.957031 C 214.386719 150.75 215.699219 145.914062 213.492188 142.101562 C 211.285156 138.28125 206.453125 136.96875 202.636719 139.171875 "/>
<path style=" stroke:none;fill-rule:nonzero;fill:#1E4164;fill-opacity:1;" d="M 274.097656 150.199219 L 253.445312 138.28125 C 249.628906 136.121094 244.792969 137.390625 242.585938 141.210938 C 240.382812 145.027344 241.695312 149.859375 245.472656 152.066406 L 266.167969 163.984375 C 269.984375 166.148438 274.820312 164.875 277.023438 161.058594 C 279.1875 157.238281 277.914062 152.40625 274.097656 150.199219 "/>
</g>
</svg>
