<?xml version="1.0" encoding="UTF-8"?>
<svg xmlns="http://www.w3.org/2000/svg" xmlns:xlink="http://www.w3.org/1999/xlink" width="283.46pt" height="283.46pt" viewBox="0 0 283.46 283.46" version="1.1">
<g id="surface1">
<path style=" stroke:none;fill-rule:nonzero;fill:#084c5f;fill-opacity:1;" d="M 81.804688 219.746094 L 81.804688 219.761719 C 75.519531 219.613281 70.316406 221.8125 66.355469 223.894531 C 66.347656 223.898438 66.335938 223.902344 66.324219 223.910156 C 60.5 226.945312 55.386719 230.648438 50.945312 233.296875 C 48.460938 234.738281 46.089844 236.003906 43.683594 237.082031 L 43.636719 237.097656 L 43.585938 237.117188 C 41.734375 237.972656 40.101562 238.664062 38.628906 239.109375 L 38.546875 239.125 L 38.464844 239.15625 C 36.363281 239.835938 34.210938 240.265625 32.078125 240.375 C 32.070312 240.378906 32.066406 240.375 32.058594 240.375 C 27.710938 240.59375 23.402344 239.613281 18.886719 237.890625 C 14.535156 236.226562 9.660156 238.402344 7.996094 242.753906 C 6.332031 247.105469 8.511719 251.984375 12.859375 253.644531 C 18.742188 255.894531 25.488281 257.597656 32.917969 257.21875 L 32.929688 257.21875 C 36.671875 257.027344 40.207031 256.292969 43.488281 255.246094 C 43.507812 255.238281 43.53125 255.21875 43.550781 255.210938 C 43.585938 255.203125 43.617188 255.207031 43.652344 255.195312 C 46.222656 254.40625 48.496094 253.417969 50.566406 252.460938 C 50.597656 252.449219 50.636719 252.441406 50.664062 252.429688 L 50.664062 252.410156 C 53.714844 251.039062 56.605469 249.507812 59.425781 247.867188 L 59.460938 247.851562 L 59.507812 247.835938 C 64.882812 244.636719 69.824219 241.109375 74.144531 238.863281 L 74.164062 238.84375 L 74.179688 238.84375 C 77.179688 237.265625 79.367188 236.511719 81.488281 236.589844 L 81.65625 236.605469 L 81.800781 236.605469 C 81.902344 236.605469 82.113281 236.613281 82.363281 236.640625 C 82.378906 236.640625 82.378906 236.652344 82.394531 236.652344 C 84.023438 236.875 85.628906 237.402344 87.367188 238.253906 C 87.398438 238.265625 87.421875 238.269531 87.449219 238.285156 L 89.113281 239.191406 L 89.328125 239.339844 L 89.34375 239.339844 L 89.554688 239.519531 L 90.316406 239.847656 C 90.703125 240.089844 91.125 240.351562 91.652344 240.65625 C 91.753906 240.714844 91.800781 240.757812 91.910156 240.820312 C 93.414062 241.75 94.875 242.6875 96.292969 243.636719 L 96.34375 243.652344 L 96.375 243.6875 C 100.414062 246.332031 104.574219 249.378906 109.285156 252.28125 C 112.910156 254.515625 117.1875 256.871094 122.507812 257.863281 C 122.550781 257.871094 122.589844 257.886719 122.636719 257.898438 L 122.636719 257.878906 C 124.574219 258.25 126.324219 258.324219 127.855469 258.324219 L 127.988281 258.324219 C 133.480469 258.234375 138.519531 256.179688 144.472656 252.875 C 144.476562 252.871094 144.480469 252.859375 144.488281 252.855469 C 152.261719 248.570312 157.242188 245.800781 161.925781 244 L 161.925781 243.984375 C 166.433594 242.265625 170.734375 241.292969 175.082031 241.515625 C 177.222656 241.621094 179.363281 242.066406 181.46875 242.746094 L 181.550781 242.765625 L 181.632812 242.796875 C 183.105469 243.242188 184.738281 243.914062 186.589844 244.773438 L 186.640625 244.804688 L 186.691406 244.820312 C 189.097656 245.898438 191.484375 247.167969 193.96875 248.609375 C 198.40625 251.257812 203.519531 254.941406 209.347656 257.980469 C 209.355469 257.984375 209.367188 257.988281 209.378906 257.996094 C 213.335938 260.074219 218.523438 262.289062 224.804688 262.144531 L 224.804688 262.160156 C 224.863281 262.160156 224.894531 262.144531 224.957031 262.144531 C 225.007812 262.140625 225.054688 262.160156 225.105469 262.160156 L 225.105469 262.144531 C 225.980469 262.128906 226.792969 262.066406 227.410156 261.996094 L 227.492188 261.996094 L 227.574219 261.980469 C 231.464844 261.464844 234.925781 260.222656 237.929688 258.734375 L 238.078125 258.652344 L 238.210938 258.585938 L 240.566406 257.320312 L 241.011719 257.070312 L 241.042969 257.058594 L 241.304688 256.941406 L 241.769531 256.644531 C 242.414062 256.242188 242.890625 255.957031 243.25 255.753906 L 243.382812 255.675781 L 243.511719 255.59375 C 245.183594 254.558594 246.902344 253.472656 248.632812 252.3125 C 248.65625 252.296875 248.675781 252.28125 248.699219 252.265625 C 253.191406 249.320312 257.222656 246.386719 261.144531 243.964844 C 264.132812 242.125 266.578125 240.980469 268.640625 240.605469 C 273.222656 239.78125 276.269531 235.394531 275.441406 230.8125 C 274.617188 226.226562 270.230469 223.183594 265.648438 224.007812 C 265.648438 224.007812 265.644531 224.007812 265.640625 224.007812 C 260.265625 224.980469 255.960938 227.351562 252.304688 229.609375 C 252.300781 229.609375 252.292969 229.605469 252.289062 229.609375 C 247.585938 232.503906 243.414062 235.574219 239.378906 238.21875 L 239.347656 238.234375 L 239.3125 238.269531 C 237.8125 239.277344 236.25 240.246094 234.652344 241.234375 L 234.671875 241.25 C 234.183594 241.53125 233.800781 241.761719 233.4375 241.988281 C 233.421875 241.996094 233.398438 241.996094 233.386719 242.007812 L 232.578125 242.386719 L 232.414062 242.515625 L 232.332031 242.550781 L 232.019531 242.765625 L 230.320312 243.6875 C 228.609375 244.515625 227.011719 245.050781 225.398438 245.265625 C 225.390625 245.269531 225.375 245.265625 225.367188 245.265625 C 225.128906 245.289062 224.902344 245.300781 224.804688 245.300781 L 224.511719 245.300781 C 222.390625 245.375 220.183594 244.640625 217.183594 243.058594 L 217.167969 243.042969 L 217.148438 243.042969 C 212.828125 240.796875 207.886719 237.265625 202.511719 234.070312 L 202.480469 234.054688 L 202.449219 234.019531 C 199.625 232.378906 196.734375 230.847656 193.6875 229.476562 C 193.65625 229.460938 193.621094 229.441406 193.585938 229.425781 C 191.519531 228.472656 189.238281 227.496094 186.671875 226.707031 C 186.671875 226.707031 186.675781 226.695312 186.671875 226.691406 C 186.617188 226.675781 186.5625 226.660156 186.507812 226.644531 C 183.226562 225.59375 179.675781 224.878906 175.9375 224.683594 C 168.507812 224.308594 161.765625 226.011719 155.882812 228.257812 L 155.863281 228.257812 C 149.589844 230.671875 144.03125 233.851562 136.320312 238.101562 L 136.304688 238.101562 L 136.304688 238.121094 C 131.207031 240.953125 129.570312 241.421875 127.773438 241.464844 C 126.804688 241.460938 126.15625 241.390625 125.769531 241.316406 L 125.699219 241.316406 L 125.636719 241.300781 C 123.574219 240.925781 121.109375 239.777344 118.128906 237.9375 L 118.128906 237.921875 C 114.203125 235.507812 110.175781 232.582031 105.695312 229.640625 C 105.664062 229.617188 105.644531 229.59375 105.609375 229.574219 C 103.886719 228.417969 102.171875 227.34375 100.507812 226.316406 L 100.375 226.230469 L 100.226562 226.148438 C 99.871094 225.949219 99.394531 225.648438 98.742188 225.242188 L 98.300781 224.964844 L 98.039062 224.847656 L 97.558594 224.585938 L 95.191406 223.300781 L 95.058594 223.234375 L 94.925781 223.171875 C 91.917969 221.683594 88.460938 220.421875 84.570312 219.90625 L 84.488281 219.90625 L 84.402344 219.890625 C 83.785156 219.824219 82.976562 219.777344 82.097656 219.761719 L 82.097656 219.746094 C 82.046875 219.742188 82.003906 219.761719 81.953125 219.761719 C 81.894531 219.761719 81.859375 219.746094 81.800781 219.746094 L 81.804688 219.746094 "/>
<path style=" stroke:none;fill-rule:nonzero;fill:#084c5f;fill-opacity:1;" d="M 139.332031 125.6875 C 131.960938 125.6875 126.125 119.851562 126.125 112.480469 C 126.125 105.113281 131.960938 99.277344 139.332031 99.277344 C 146.699219 99.277344 152.535156 105.417969 152.535156 112.480469 C 152.535156 119.851562 146.699219 125.6875 139.332031 125.6875 Z M 232.375 82.695312 L 164.203125 92.214844 C 162.054688 89.757812 159.597656 87.609375 156.835938 85.765625 L 207.195312 71.027344 C 207.195312 71.027344 215.789062 48.304688 182.9375 26.5 L 143.9375 80.851562 C 142.402344 80.546875 140.867188 80.546875 139.332031 80.546875 C 137.488281 80.546875 135.335938 80.851562 133.496094 81.160156 L 160.210938 37.863281 C 160.210938 37.863281 151.308594 15.445312 112.308594 20.972656 L 119.679688 86.992188 C 116.914062 89.144531 114.457031 91.601562 112.617188 94.363281 L 101.5625 46.769531 C 101.5625 46.769531 79.453125 36.941406 55.804688 68.570312 L 107.394531 109.410156 C 107.394531 110.332031 107.085938 111.558594 107.085938 112.480469 C 107.085938 114.632812 107.394531 116.78125 107.703125 118.929688 L 67.167969 92.523438 C 67.167969 92.523438 44.445312 100.8125 49.355469 140.117188 L 115.378906 133.976562 C 117.222656 135.820312 119.066406 137.664062 121.214844 138.890625 L 75.765625 150.25 C 75.765625 150.25 72.21875 158.898438 77.171875 170.96875 L 83.140625 170.058594 L 83.398438 170.101562 L 85.515625 170.222656 L 85.992188 170.222656 L 86.191406 170.261719 L 96.414062 172.835938 C 97.972656 173.410156 99.523438 174.078125 101.066406 174.828125 L 101.300781 174.933594 L 101.914062 175.242188 L 104.46875 176.617188 L 105.15625 176.921875 L 106.519531 177.789062 C 106.789062 177.960938 107.015625 178.101562 107.203125 178.21875 L 107.425781 178.332031 L 108.03125 178.703125 C 108.738281 179.140625 109.539062 179.636719 110.390625 180.175781 L 137.792969 144.417969 C 138.410156 144.417969 138.714844 144.417969 139.332031 144.417969 C 141.785156 144.417969 144.242188 144.109375 146.699219 143.496094 L 121.214844 187.101562 C 121.214844 187.101562 121.289062 187.273438 121.4375 187.5625 C 122.933594 188.574219 124.367188 189.527344 125.722656 190.363281 C 126.441406 190.804688 127.007812 191.125 127.441406 191.355469 C 127.96875 191.085938 128.65625 190.71875 129.558594 190.21875 L 132.769531 188.433594 L 132.820312 188.433594 C 139.363281 184.8125 144.648438 181.929688 150.917969 179.515625 L 153.375 178.570312 L 153.550781 178.570312 C 158.109375 177 162.519531 175.957031 166.859375 175.40625 L 162.976562 133.976562 C 165.125 131.519531 166.96875 128.757812 168.503906 125.6875 L 180.855469 175.386719 C 184.160156 175.8125 187.488281 176.546875 190.792969 177.59375 C 190.867188 177.613281 190.941406 177.636719 191.015625 177.660156 C 192.007812 177.964844 192.9375 178.289062 193.835938 178.617188 C 202.464844 177.433594 214.566406 172.191406 226.84375 155.164062 L 171.574219 112.175781 C 171.574219 109.410156 171.265625 106.339844 170.34375 103.578125 L 216.714844 130.90625 C 216.714844 130.90625 239.128906 121.386719 232.375 82.695312 "/>
<path style=" stroke:none;fill-rule:nonzero;fill:#084c5f;fill-opacity:1;" d="M 81.945312 184.230469 L 81.945312 184.246094 C 75.667969 184.101562 70.472656 186.320312 66.515625 188.394531 C 66.5 188.402344 66.480469 188.40625 66.464844 188.414062 L 66.464844 188.429688 C 60.648438 191.460938 55.539062 195.136719 51.101562 197.78125 C 48.621094 199.226562 46.230469 200.492188 43.824219 201.570312 L 43.777344 201.582031 L 43.726562 201.617188 C 41.875 202.476562 40.246094 203.148438 38.773438 203.59375 L 38.6875 203.628906 L 38.605469 203.644531 C 36.5 204.324219 34.355469 204.765625 32.21875 204.878906 C 27.859375 205.097656 23.550781 204.121094 19.027344 202.390625 C 14.746094 200.5625 9.792969 202.546875 7.960938 206.828125 C 6.128906 211.109375 8.117188 216.066406 12.398438 217.898438 C 12.601562 217.984375 12.808594 218.0625 13.019531 218.132812 C 18.902344 220.378906 25.644531 222.082031 33.074219 221.707031 C 36.8125 221.511719 40.363281 220.796875 43.644531 219.746094 C 43.667969 219.742188 43.6875 219.722656 43.710938 219.714844 C 43.742188 219.703125 43.777344 219.707031 43.808594 219.699219 L 43.808594 219.683594 C 46.375 218.894531 48.65625 217.921875 50.722656 216.964844 C 50.757812 216.949219 50.789062 216.929688 50.824219 216.914062 C 53.875 215.542969 56.761719 214.011719 59.585938 212.371094 L 59.617188 212.335938 L 59.648438 212.320312 C 65.023438 209.121094 69.964844 205.597656 74.289062 203.347656 L 74.300781 203.347656 L 74.320312 203.332031 C 77.320312 201.75 79.527344 201.015625 81.648438 201.09375 L 81.945312 201.09375 C 82.042969 201.09375 82.265625 201.101562 82.503906 201.125 C 82.519531 201.125 82.523438 201.125 82.535156 201.125 C 84.144531 201.339844 85.746094 201.871094 87.460938 202.707031 L 89.238281 203.675781 L 89.46875 203.839844 L 89.550781 203.875 L 89.714844 204.007812 L 90.523438 204.386719 L 90.574219 204.402344 C 90.9375 204.628906 91.320312 204.859375 91.804688 205.140625 L 91.789062 205.15625 C 93.386719 206.144531 94.949219 207.113281 96.449219 208.121094 L 96.480469 208.15625 L 96.515625 208.171875 C 100.554688 210.816406 104.71875 213.882812 109.425781 216.78125 C 113.050781 219.019531 117.332031 221.359375 122.648438 222.347656 C 122.695312 222.359375 122.734375 222.371094 122.777344 222.382812 L 122.777344 222.367188 C 124.714844 222.734375 126.46875 222.808594 128 222.808594 L 128.148438 222.808594 C 133.636719 222.71875 138.667969 220.660156 144.613281 217.359375 C 144.625 217.351562 144.632812 217.351562 144.644531 217.34375 C 152.398438 213.066406 157.375 210.300781 162.050781 208.5 C 162.054688 208.496094 162.058594 208.488281 162.066406 208.484375 C 166.574219 206.765625 170.878906 205.796875 175.222656 206.015625 C 175.226562 206.015625 175.234375 206.015625 175.238281 206.015625 C 177.375 206.125 179.527344 206.554688 181.628906 207.234375 L 181.710938 207.265625 L 181.792969 207.28125 C 183.265625 207.726562 184.898438 208.417969 186.746094 209.273438 L 186.847656 209.304688 C 189.253906 210.386719 191.628906 211.652344 194.105469 213.097656 C 198.550781 215.742188 203.664062 219.445312 209.488281 222.480469 C 209.496094 222.488281 209.511719 222.492188 209.519531 222.496094 C 213.476562 224.574219 218.683594 226.777344 224.964844 226.628906 L 224.964844 226.644531 C 225.023438 226.644531 225.058594 226.648438 225.113281 226.644531 C 225.164062 226.644531 225.210938 226.648438 225.261719 226.644531 L 225.261719 226.628906 C 226.140625 226.613281 226.949219 226.566406 227.566406 226.496094 L 227.648438 226.480469 L 227.730469 226.480469 C 231.621094 225.96875 235.082031 224.707031 238.089844 223.222656 L 238.21875 223.15625 L 238.351562 223.089844 L 240.722656 221.804688 L 241.199219 221.558594 L 241.234375 221.542969 L 241.464844 221.425781 L 241.910156 221.148438 C 242.558594 220.746094 243.035156 220.441406 243.390625 220.242188 L 243.539062 220.160156 L 243.671875 220.078125 C 245.339844 219.046875 247.046875 217.972656 248.773438 216.816406 C 248.804688 216.796875 248.828125 216.785156 248.855469 216.765625 C 253.34375 213.824219 257.363281 210.882812 261.289062 208.46875 C 264.273438 206.628906 266.734375 205.464844 268.796875 205.09375 C 273.378906 204.265625 276.425781 199.882812 275.601562 195.296875 C 274.773438 190.714844 270.390625 187.667969 265.808594 188.496094 C 265.808594 188.496094 265.804688 188.496094 265.800781 188.496094 C 260.417969 189.46875 256.105469 191.855469 252.445312 194.109375 C 247.738281 197.011719 243.574219 200.058594 239.535156 202.707031 L 239.503906 202.738281 L 239.453125 202.753906 C 238.039062 203.703125 236.578125 204.640625 235.074219 205.570312 C 234.984375 205.625 234.902344 205.679688 234.8125 205.734375 C 234.277344 206.042969 233.851562 206.3125 233.460938 206.558594 L 232.722656 206.886719 L 232.539062 207.019531 L 232.492188 207.050781 L 232.40625 207.117188 L 232.273438 207.199219 L 230.613281 208.105469 L 230.53125 208.140625 C 228.792969 208.988281 227.1875 209.515625 225.558594 209.734375 C 225.546875 209.738281 225.535156 209.75 225.523438 209.753906 C 225.273438 209.777344 225.066406 209.785156 224.964844 209.785156 L 224.816406 209.785156 L 224.652344 209.800781 C 222.53125 209.878906 220.34375 209.125 217.34375 207.546875 L 217.324219 207.546875 L 217.308594 207.527344 C 212.984375 205.28125 208.042969 201.753906 202.671875 198.554688 L 202.621094 198.539062 L 202.589844 198.523438 C 199.769531 196.882812 196.878906 195.351562 193.828125 193.976562 C 193.796875 193.964844 193.761719 193.945312 193.730469 193.929688 C 191.660156 192.972656 189.382812 191.984375 186.816406 191.195312 C 186.761719 191.179688 186.703125 191.164062 186.648438 191.144531 C 183.367188 190.097656 179.835938 189.363281 176.097656 189.171875 L 176.078125 189.171875 C 168.648438 188.792969 161.921875 190.496094 156.039062 192.742188 L 156.007812 192.742188 C 149.730469 195.160156 144.1875 198.355469 136.480469 202.605469 L 136.445312 202.605469 C 131.332031 205.445312 129.71875 205.910156 127.917969 205.949219 C 127.894531 205.949219 127.890625 205.949219 127.867188 205.949219 C 126.941406 205.941406 126.304688 205.890625 125.925781 205.816406 L 125.859375 205.800781 L 125.777344 205.785156 C 123.714844 205.410156 121.269531 204.265625 118.28125 202.425781 C 114.355469 200.003906 110.328125 197.070312 105.835938 194.128906 C 105.8125 194.109375 105.792969 194.09375 105.769531 194.078125 C 104.039062 192.917969 102.320312 191.832031 100.648438 190.800781 L 100.515625 190.71875 L 100.386719 190.652344 C 100.027344 190.449219 99.550781 190.148438 98.90625 189.746094 L 98.445312 189.449219 L 98.179688 189.332031 L 98.148438 189.316406 L 97.703125 189.070312 L 95.347656 187.804688 L 95.214844 187.738281 L 95.070312 187.671875 C 92.0625 186.183594 88.601562 184.925781 84.710938 184.410156 L 84.628906 184.394531 L 84.546875 184.394531 C 83.929688 184.328125 83.117188 184.265625 82.242188 184.246094 L 82.242188 184.230469 C 82.191406 184.226562 82.144531 184.246094 82.09375 184.246094 C 82.035156 184.246094 82.003906 184.230469 81.945312 184.230469 "/>
</g>
</svg>
