<?xml version="1.0" encoding="UTF-8"?>
<svg class="icon" aria-hidden="true" xmlns="http://www.w3.org/2000/svg" xmlns:xlink="http://www.w3.org/1999/xlink" width="283.46pt" height="283.46pt" viewBox="0 0 283.46 283.46" version="1.1">
<g id="surface1">
<path style=" stroke:none;fill-rule:nonzero;fill:#F38D4B;fill-opacity:1;" d="M 141.550781 97.859375 C 129.828125 97.859375 118.808594 102.421875 110.523438 110.707031 C 93.417969 127.8125 93.417969 155.644531 110.523438 172.75 C 118.8125 181.039062 129.828125 185.601562 141.550781 185.601562 C 153.265625 185.601562 164.28125 181.039062 172.570312 172.75 C 180.839844 164.480469 185.394531 153.464844 185.394531 141.730469 C 185.394531 129.996094 180.839844 118.976562 172.570312 110.707031 C 164.285156 102.421875 153.269531 97.859375 141.550781 97.859375 Z M 141.550781 213.601562 C 122.351562 213.601562 104.300781 206.125 90.722656 192.550781 C 62.703125 164.527344 62.703125 118.929688 90.722656 90.910156 C 104.300781 77.335938 122.347656 69.859375 141.550781 69.859375 C 160.746094 69.859375 178.796875 77.335938 192.371094 90.910156 C 205.929688 104.46875 213.394531 122.515625 213.394531 141.730469 C 213.394531 160.941406 205.929688 178.992188 192.371094 192.550781 C 178.796875 206.125 160.746094 213.601562 141.550781 213.601562 "/>
<path style=" stroke:none;fill-rule:nonzero;fill:#F38D4B;fill-opacity:1;" d="M 46.847656 151.734375 L 15.261719 151.734375 C 9.738281 151.734375 5.261719 147.257812 5.261719 141.734375 C 5.261719 136.210938 9.738281 131.734375 15.261719 131.734375 L 46.847656 131.734375 C 52.371094 131.734375 56.847656 136.210938 56.847656 141.734375 C 56.847656 147.257812 52.371094 151.734375 46.847656 151.734375 "/>
<path style=" stroke:none;fill-rule:nonzero;fill:#F38D4B;fill-opacity:1;" d="M 267.835938 151.734375 L 236.246094 151.734375 C 230.722656 151.734375 226.246094 147.257812 226.246094 141.734375 C 226.246094 136.210938 230.722656 131.734375 236.246094 131.734375 L 267.835938 131.734375 C 273.355469 131.734375 277.835938 136.210938 277.835938 141.734375 C 277.835938 147.257812 273.355469 151.734375 267.835938 151.734375 "/>
<path style=" stroke:none;fill-rule:nonzero;fill:#F38D4B;fill-opacity:1;" d="M 141.546875 278.023438 C 136.023438 278.023438 131.546875 273.546875 131.546875 268.023438 L 131.546875 236.433594 C 131.546875 230.910156 136.023438 226.433594 141.546875 226.433594 C 147.070312 226.433594 151.546875 230.910156 151.546875 236.433594 L 151.546875 268.023438 C 151.546875 273.546875 147.070312 278.023438 141.546875 278.023438 "/>
<path style=" stroke:none;fill-rule:nonzero;fill:#F38D4B;fill-opacity:1;" d="M 141.546875 57.035156 C 136.023438 57.035156 131.546875 52.558594 131.546875 47.035156 L 131.546875 15.449219 C 131.546875 9.925781 136.023438 5.449219 141.546875 5.449219 C 147.070312 5.449219 151.546875 9.925781 151.546875 15.449219 L 151.546875 47.035156 C 151.546875 52.558594 147.070312 57.035156 141.546875 57.035156 "/>
<path style=" stroke:none;fill-rule:nonzero;fill:#F38D4B;fill-opacity:1;" d="M 52.25 241.03125 C 49.691406 241.03125 47.132812 240.058594 45.175781 238.105469 C 41.273438 234.199219 41.273438 227.867188 45.175781 223.960938 L 67.515625 201.625 C 71.417969 197.71875 77.75 197.71875 81.65625 201.625 C 85.5625 205.53125 85.5625 211.859375 81.65625 215.765625 L 59.320312 238.101562 C 57.367188 240.054688 54.808594 241.03125 52.25 241.03125 "/>
<path style=" stroke:none;fill-rule:nonzero;fill:#F38D4B;fill-opacity:1;" d="M 208.507812 84.773438 C 205.949219 84.773438 203.390625 83.796875 201.4375 81.84375 C 197.53125 77.9375 197.53125 71.605469 201.4375 67.699219 L 223.777344 45.363281 C 227.683594 41.460938 234.015625 41.460938 237.917969 45.363281 C 241.824219 49.269531 241.824219 55.601562 237.917969 59.507812 L 215.578125 81.84375 C 213.628906 83.796875 211.066406 84.773438 208.507812 84.773438 "/>
<path style=" stroke:none;fill-rule:nonzero;fill:#F38D4B;fill-opacity:1;" d="M 230.847656 241.03125 C 228.285156 241.03125 225.730469 240.058594 223.773438 238.105469 L 201.4375 215.769531 C 197.535156 211.863281 197.535156 205.53125 201.4375 201.625 C 205.347656 197.71875 211.675781 197.71875 215.582031 201.625 L 237.917969 223.960938 C 241.824219 227.867188 241.824219 234.199219 237.917969 238.105469 C 235.964844 240.058594 233.40625 241.03125 230.847656 241.03125 "/>
<path style=" stroke:none;fill-rule:nonzero;fill:#F38D4B;fill-opacity:1;" d="M 74.585938 84.773438 C 72.027344 84.773438 69.46875 83.796875 67.515625 81.84375 L 45.175781 59.507812 C 41.273438 55.601562 41.273438 49.269531 45.175781 45.363281 C 49.085938 41.460938 55.414062 41.460938 59.320312 45.363281 L 81.65625 67.699219 C 85.5625 71.605469 85.5625 77.9375 81.65625 81.84375 C 79.703125 83.796875 77.144531 84.773438 74.585938 84.773438 "/>
</g>
</svg>
