<?xml version="1.0" encoding="UTF-8"?>
<svg xmlns="http://www.w3.org/2000/svg" xmlns:xlink="http://www.w3.org/1999/xlink" width="283.46pt" height="283.46pt" viewBox="0 0 283.46 283.46" version="1.1">
<g id="surface1">
<path style=" stroke:none;fill-rule:nonzero;fill:#006fde;fill-opacity:1;" d="M 110.007812 106.148438 L 50.425781 126.507812 C 45.199219 128.289062 42.410156 133.976562 44.195312 139.203125 C 45.613281 143.355469 49.5 145.972656 53.65625 145.972656 C 54.730469 145.972656 55.820312 145.796875 56.890625 145.433594 L 116.542969 125.050781 C 112.472656 119.71875 110.09375 113.121094 110.007812 106.148438 "/>
<path style=" stroke:none;fill-rule:nonzero;fill:#006fde;fill-opacity:1;" d="M 147.601562 74.421875 C 151.144531 75.070312 154.4375 76.296875 157.417969 77.96875 L 169.253906 16.066406 C 170.289062 10.644531 166.734375 5.40625 161.308594 4.367188 C 155.882812 3.332031 150.644531 6.886719 149.609375 12.3125 L 137.785156 74.148438 C 140.96875 73.742188 144.269531 73.808594 147.601562 74.421875 "/>
<path style=" stroke:none;fill-rule:nonzero;fill:#006fde;fill-opacity:1;" d="M 218.566406 159.136719 L 171.207031 118 C 168.53125 124.425781 163.859375 129.65625 158.085938 133.089844 L 205.449219 174.234375 C 207.34375 175.878906 209.679688 176.683594 212.003906 176.683594 C 214.800781 176.683594 217.578125 175.519531 219.558594 173.242188 C 223.179688 169.070312 222.734375 162.757812 218.566406 159.136719 "/>
<path style=" stroke:none;fill-rule:nonzero;fill:#006fde;fill-opacity:1;" d="M 181.726562 188.289062 C 180.066406 184.496094 175.644531 182.761719 171.847656 184.425781 C 166.671875 186.691406 161.269531 188.074219 155.839844 188.644531 L 155.839844 121.667969 C 155.839844 121.476562 155.816406 121.289062 155.808594 121.101562 C 159.070312 118.144531 161.433594 114.152344 162.292969 109.488281 C 164.371094 98.191406 156.898438 87.347656 145.601562 85.273438 C 134.304688 83.191406 123.460938 90.664062 121.382812 101.960938 C 120.035156 109.300781 122.730469 116.425781 127.867188 121.105469 C 127.859375 121.292969 127.839844 121.476562 127.839844 121.667969 L 127.839844 184.25 C 122.683594 181.988281 117.859375 178.9375 113.578125 175.144531 L 116.664062 171.910156 C 119.085938 169.378906 117.503906 165.167969 114.011719 164.859375 L 105.664062 164.117188 L 94.152344 163.097656 C 91.390625 162.851562 89.160156 165.308594 89.671875 168.03125 L 91.675781 178.769531 L 93.191406 186.902344 C 93.816406 190.253906 97.972656 191.488281 100.328125 189.023438 L 103.214844 186 C 110.3125 192.402344 118.710938 197.328125 127.839844 200.394531 L 127.839844 264.570312 C 127.839844 272.304688 134.105469 278.570312 141.839844 278.570312 C 149.570312 278.570312 155.839844 272.304688 155.839844 264.570312 L 155.839844 203.730469 C 163.390625 203.085938 170.847656 201.238281 177.863281 198.167969 C 181.65625 196.507812 183.386719 192.082031 181.726562 188.289062 "/>
<path style=" stroke:none;fill-rule:nonzero;fill:#006fde;fill-opacity:1;" d="M 231.082031 102.449219 L 226.699219 102 C 229 81.917969 222.417969 61.378906 208.40625 46.394531 C 205.578125 43.367188 200.832031 43.207031 197.804688 46.035156 C 194.78125 48.867188 194.621094 53.613281 197.449219 56.640625 C 208.492188 68.449219 213.652344 84.652344 211.777344 100.472656 L 207.546875 100.039062 C 204.058594 99.683594 201.707031 103.515625 203.601562 106.464844 L 208.136719 113.511719 L 214.394531 123.230469 C 215.890625 125.558594 219.199219 125.816406 221.035156 123.742188 L 228.289062 115.574219 L 233.78125 109.386719 C 236.046875 106.835938 234.472656 102.796875 231.082031 102.449219 "/>
<path style=" stroke:none;fill-rule:nonzero;fill:#006fde;fill-opacity:1;" d="M 119.820312 29.097656 L 109.050781 27.292969 L 100.886719 25.929688 C 97.523438 25.367188 94.941406 28.847656 96.445312 31.902344 L 98.394531 35.851562 C 80.160156 44.574219 66.261719 61.066406 61.015625 80.902344 C 59.953125 84.90625 62.339844 89.011719 66.34375 90.070312 C 66.988281 90.242188 67.632812 90.324219 68.269531 90.324219 C 71.589844 90.324219 74.625 88.101562 75.515625 84.738281 C 79.652344 69.105469 90.648438 56.144531 105.046875 49.324219 L 106.914062 53.121094 C 108.464844 56.261719 112.964844 56.222656 114.453125 53.046875 L 118.011719 45.460938 L 122.921875 34.996094 C 124.097656 32.488281 122.554688 29.554688 119.820312 29.097656 "/>
</g>
</svg>
